<svg xmlns="http://www.w3.org/2000/svg" width="1280" height="720" viewBox="0 0 1280 720" role="img" aria-labelledby="title desc">
  <title id="title">Nomi 新手第一条成片海报</title>
  <desc id="desc">从写故事、搭参考、生成节点到时间轴导出的工作流海报。</desc>
  <defs>
    <linearGradient id="bg" x1="0" x2="1" y1="0" y2="1">
      <stop offset="0" stop-color="#f7f3ea"/>
      <stop offset="0.58" stop-color="#eee8dd"/>
      <stop offset="1" stop-color="#e8e0d3"/>
    </linearGradient>
    <linearGradient id="accent" x1="0" x2="1">
      <stop offset="0" stop-color="#5147b6"/>
      <stop offset="1" stop-color="#e8765a"/>
    </linearGradient>
    <filter id="softShadow" x="-20%" y="-20%" width="140%" height="140%">
      <feDropShadow dx="0" dy="22" stdDeviation="24" flood-color="#1a1816" flood-opacity=".14"/>
    </filter>
    <pattern id="grain" width="8" height="8" patternUnits="userSpaceOnUse">
      <circle cx="1" cy="1" r=".65" fill="#1a1816" opacity=".045"/>
      <circle cx="5" cy="4" r=".55" fill="#1a1816" opacity=".032"/>
    </pattern>
  </defs>
  <rect width="1280" height="720" fill="url(#bg)"/>
  <rect width="1280" height="720" fill="url(#grain)"/>
  <g transform="translate(74 70)">
    <text x="0" y="0" font-family="Inter, PingFang SC, sans-serif" font-size="18" font-weight="700" fill="#5147b6" letter-spacing="2">NOMI QUICKSTART</text>
    <text x="0" y="72" font-family="Noto Serif SC, Songti SC, serif" font-size="58" font-weight="900" fill="#1a1816">第一条 AI 视频</text>
    <text x="0" y="128" font-family="Noto Serif SC, Songti SC, serif" font-size="58" font-weight="900" fill="#1a1816">先搭参考，再生成</text>
    <text x="0" y="176" font-family="Inter, PingFang SC, sans-serif" font-size="20" fill="#5f5850">用 3D 导演台把人物、道具、机位、运镜摆出来，让视频模型少猜一点。</text>
  </g>
  <g transform="translate(86 320)" filter="url(#softShadow)">
    <rect x="0" y="0" width="1088" height="236" rx="24" fill="#fffdf8" stroke="#d9d3c5"/>
    <g transform="translate(34 30)">
      <rect width="220" height="158" rx="16" fill="#f1efe8" stroke="#d9d3c5"/>
      <text x="20" y="38" font-family="Inter, PingFang SC, sans-serif" font-size="17" font-weight="700" fill="#1a1816">1 写故事</text>
      <path d="M24 66h152M24 94h116M24 122h164" stroke="#8a8278" stroke-width="8" stroke-linecap="round"/>
      <circle cx="184" cy="126" r="17" fill="#5147b6"/>
      <path d="M177 126h14M184 119v14" stroke="#fffdf8" stroke-width="3" stroke-linecap="round"/>
    </g>
    <path d="M286 108h70" stroke="#8a8278" stroke-width="3" stroke-linecap="round"/>
    <path d="M346 95l16 13-16 13" fill="none" stroke="#8a8278" stroke-width="3" stroke-linecap="round" stroke-linejoin="round"/>
    <g transform="translate(386 30)">
      <rect width="220" height="158" rx="16" fill="#f6f0ee" stroke="#d9d3c5"/>
      <text x="20" y="38" font-family="Inter, PingFang SC, sans-serif" font-size="17" font-weight="700" fill="#1a1816">2 搭参考</text>
      <rect x="28" y="62" width="92" height="62" rx="10" fill="#d8e1ec" stroke="#1a1816" stroke-opacity=".2"/>
      <circle cx="74" cy="88" r="14" fill="#5147b6"/>
      <path d="M74 104v36M50 126h48" stroke="#5147b6" stroke-width="7" stroke-linecap="round"/>
      <path d="M138 116l56-38v76z" fill="#e8765a" opacity=".8"/>
      <circle cx="138" cy="116" r="14" fill="#1a1816"/>
    </g>
    <path d="M638 108h70" stroke="#8a8278" stroke-width="3" stroke-linecap="round"/>
    <path d="M698 95l16 13-16 13" fill="none" stroke="#8a8278" stroke-width="3" stroke-linecap="round" stroke-linejoin="round"/>
    <g transform="translate(738 30)">
      <rect width="220" height="158" rx="16" fill="#f1efe8" stroke="#d9d3c5"/>
      <text x="20" y="38" font-family="Inter, PingFang SC, sans-serif" font-size="17" font-weight="700" fill="#1a1816">3 生成节点</text>
      <rect x="24" y="64" width="74" height="58" rx="12" fill="#fffdf8" stroke="#d9d3c5"/>
      <rect x="122" y="64" width="74" height="58" rx="12" fill="#fffdf8" stroke="#d9d3c5"/>
      <path d="M98 93h24" stroke="#5147b6" stroke-width="4" stroke-linecap="round"/>
      <circle cx="61" cy="93" r="15" fill="#5147b6" opacity=".88"/>
      <path d="M148 83l22 10-22 10z" fill="#e8765a"/>
      <path d="M40 142h138" stroke="#8a8278" stroke-width="8" stroke-linecap="round" opacity=".45"/>
    </g>
    <path d="M990 108h46" stroke="#8a8278" stroke-width="3" stroke-linecap="round"/>
    <path d="M1026 95l16 13-16 13" fill="none" stroke="#8a8278" stroke-width="3" stroke-linecap="round" stroke-linejoin="round"/>
  </g>
  <g transform="translate(918 94)">
    <rect width="250" height="172" rx="24" fill="#1a1816"/>
    <path d="M34 112h182" stroke="#fffdf8" stroke-opacity=".35" stroke-width="10" stroke-linecap="round"/>
    <rect x="36" y="54" width="50" height="34" rx="8" fill="#5147b6"/>
    <rect x="96" y="54" width="50" height="34" rx="8" fill="#e8765a"/>
    <rect x="156" y="54" width="50" height="34" rx="8" fill="#fffdf8"/>
    <circle cx="43" cy="132" r="8" fill="#e8765a"/>
    <text x="34" y="36" font-family="Inter, PingFang SC, sans-serif" font-size="16" font-weight="700" fill="#fffdf8">导出 MP4</text>
    <text x="34" y="154" font-family="Inter, PingFang SC, sans-serif" font-size="13" fill="#fffdf8" opacity=".66">Preview = Final</text>
  </g>
  <rect x="86" y="610" width="1094" height="1" fill="#d9d3c5"/>
  <text x="86" y="650" font-family="Inter, PingFang SC, sans-serif" font-size="18" font-weight="700" fill="#1a1816">Nomi v0.16.2</text>
  <text x="212" y="650" font-family="Inter, PingFang SC, sans-serif" font-size="18" fill="#5f5850">Windows / Mac 都可下载 · nomiaqm.com</text>
</svg>
